<svg viewBox="0 0 150 136" fill="none" xmlns="http://www.w3.org/2000/svg">
<path d="M41.7373 136C40.1836 136 38.7359 135.61 37.3941 134.831C36.0523 134.052 35.0282 132.954 34.322 131.538L17.7966 102H30.0847L38.5593 119H58.0508V110.5H43.6441L35.1695 93.5H13.1356L1.05932 72.25C0.776836 71.5417 0.529661 70.8333 0.317797 70.125C0.105932 69.4167 0 68.7083 0 68C0 67.4333 0.353107 66.0167 1.05932 63.75L13.1356 42.5H35.1695L43.6441 25.5H58.0508V17H38.5593L30.0847 34H17.7966L34.322 4.4625C35.0282 3.04583 36.0523 1.94792 37.3941 1.16875C38.7359 0.389583 40.1836 0 41.7373 0H62.2881C64.6893 0 66.702 0.814583 68.3263 2.44375C69.9506 4.07292 70.7627 6.09167 70.7627 8.5V42.5H58.0508L49.5763 51H70.7627V76.5H52.1186L43.6441 59.5H24.1525L15.678 68H38.5593L47.0339 85H70.7627V127.5C70.7627 129.908 69.9506 131.927 68.3263 133.556C66.702 135.185 64.6893 136 62.2881 136H41.7373ZM87.7119 136C85.3107 136 83.298 135.185 81.6737 133.556C80.0494 131.927 79.2373 129.908 79.2373 127.5V85H102.966L111.441 68H134.322L125.847 59.5H106.356L97.8814 76.5H79.2373V51H100.424L91.9492 42.5H79.2373V8.5C79.2373 6.09167 80.0494 4.07292 81.6737 2.44375C83.298 0.814583 85.3107 0 87.7119 0H108.263C109.816 0 111.264 0.389583 112.606 1.16875C113.948 1.94792 114.972 3.04583 115.678 4.4625L132.203 34H119.915L111.441 17H91.9492V25.5H106.356L114.831 42.5H136.864L148.941 63.75C149.223 64.4583 149.47 65.1667 149.682 65.875C149.894 66.5833 150 67.2917 150 68C150 68.5667 149.647 69.9833 148.941 72.25L136.864 93.5H114.831L106.356 110.5H91.9492V119H111.441L119.915 102H132.203L115.678 131.538C114.972 132.954 113.948 134.052 112.606 134.831C111.264 135.61 109.816 136 108.263 136H87.7119Z" fill="currentColor"/>
</svg>
