<svg viewBox="0 0 150 150" fill="none" xmlns="http://www.w3.org/2000/svg">
<path d="M75 150C54.0278 150 36.2847 146.771 21.7708 140.313C7.25695 133.854 0 125.972 0 116.667V33.3333C0 24.1667 7.32639 16.3194 21.9792 9.79167C36.6319 3.26389 54.3056 0 75 0C95.6944 0 113.368 3.26389 128.021 9.79167C142.674 16.3194 150 24.1667 150 33.3333V116.667C150 125.972 142.743 133.854 128.229 140.313C113.715 146.771 95.9722 150 75 150ZM75 50.2083C87.3611 50.2083 99.7917 48.4375 112.292 44.8958C124.792 41.3542 131.806 37.5694 133.333 33.5417C131.806 29.5139 124.826 25.6944 112.396 22.0833C99.9653 18.4722 87.5 16.6667 75 16.6667C62.3611 16.6667 49.9653 18.4375 37.8125 21.9792C25.6597 25.5208 18.6111 29.375 16.6667 33.5417C18.6111 37.7083 25.6597 41.5278 37.8125 45C49.9653 48.4722 62.3611 50.2083 75 50.2083ZM75 91.6667C80.8333 91.6667 86.4583 91.3889 91.875 90.8333C97.2917 90.2778 102.465 89.4792 107.396 88.4375C112.326 87.3958 116.979 86.1111 121.354 84.5833C125.729 83.0556 129.722 81.3194 133.333 79.375V54.375C129.722 56.3194 125.729 58.0556 121.354 59.5833C116.979 61.1111 112.326 62.3958 107.396 63.4375C102.465 64.4792 97.2917 65.2778 91.875 65.8333C86.4583 66.3889 80.8333 66.6667 75 66.6667C69.1667 66.6667 63.4722 66.3889 57.9167 65.8333C52.3611 65.2778 47.1181 64.4792 42.1875 63.4375C37.2569 62.3958 32.6389 61.1111 28.3333 59.5833C24.0278 58.0556 20.1389 56.3194 16.6667 54.375V79.375C20.1389 81.3194 24.0278 83.0556 28.3333 84.5833C32.6389 86.1111 37.2569 87.3958 42.1875 88.4375C47.1181 89.4792 52.3611 90.2778 57.9167 90.8333C63.4722 91.3889 69.1667 91.6667 75 91.6667ZM75 133.333C81.3889 133.333 87.882 132.847 94.4792 131.875C101.076 130.903 107.153 129.618 112.708 128.021C118.264 126.424 122.917 124.618 126.667 122.604C130.417 120.59 132.639 118.542 133.333 116.458V96.0417C129.722 97.9861 125.729 99.7222 121.354 101.25C116.979 102.778 112.326 104.062 107.396 105.104C102.465 106.146 97.2917 106.944 91.875 107.5C86.4583 108.056 80.8333 108.333 75 108.333C69.1667 108.333 63.4722 108.056 57.9167 107.5C52.3611 106.944 47.1181 106.146 42.1875 105.104C37.2569 104.062 32.6389 102.778 28.3333 101.25C24.0278 99.7222 20.1389 97.9861 16.6667 96.0417V116.667C17.3611 118.75 19.5486 120.764 23.2292 122.708C26.9097 124.653 31.5278 126.424 37.0833 128.021C42.6389 129.618 48.75 130.903 55.4167 131.875C62.0833 132.847 68.6111 133.333 75 133.333Z" fill="currentColor"/>
</svg>
