<svg width="50" height="36" viewBox="0 0 50 36" fill="currentColor" xmlns="http://www.w3.org/2000/svg">
<path d="M12.5 36C9.01515 36 6.06061 34.8 3.63636 32.4C1.21212 30 0 27.075 0 23.625C0 20.7 0.918561 18.1219 2.75568 15.8906C4.5928 13.6594 6.89394 12.225 9.65909 11.5875C10.6061 8.2125 12.4811 5.4375 15.2841 3.2625C18.0871 1.0875 21.3258 0 25 0C29.5076 0 33.286 1.54687 36.3352 4.64062C39.3845 7.73437 40.9091 11.4375 40.9091 15.75C43.75 16.05 45.9754 17.2125 47.5852 19.2375C49.1951 21.2625 50 23.4562 50 25.8187C50 28.6312 49.0057 31.0312 47.017 33.0187C45.0284 35.0062 42.6136 36 39.7727 36H12.5ZM12.5 31.5H39.7727C41.3636 31.5 42.7083 30.9562 43.8068 29.8687C44.9053 28.7812 45.4545 27.45 45.4545 25.875C45.4545 24.3 44.9053 22.9687 43.8068 21.8812C42.7083 20.7937 41.3636 20.25 39.7727 20.25H36.3636V15.75C36.3636 12.6375 35.2557 9.98437 33.0398 7.79062C30.8239 5.59687 28.1439 4.5 25 4.5C22.6136 4.5 20.4924 5.14687 18.6364 6.44062C16.7803 7.73437 15.4167 9.39375 14.5455 11.4187C17.5 11.9062 19.9811 13.2844 21.9886 15.5531C23.9962 17.8219 25 20.5125 25 23.625H20.4545C20.4545 21.45 19.678 19.5937 18.125 18.0562C16.572 16.5187 14.697 15.75 12.5 15.75C10.303 15.75 8.42803 16.5187 6.875 18.0562C5.32197 19.5937 4.54545 21.45 4.54545 23.625C4.54545 25.8 5.32197 27.6562 6.875 29.1937C8.42803 30.7312 10.303 31.5 12.5 31.5Z" fill="currentColor"/>
</svg>
