<svg width="80" height="58" viewBox="0 0 80 58" fill="currentColor" xmlns="http://www.w3.org/2000/svg">
<path d="M20 58C14.4848 58 9.77273 56.0969 5.86364 52.2906C1.95455 48.4844 0 43.8323 0 38.3344C0 33.6219 1.42424 29.4229 4.27273 25.7375C7.12121 22.0521 10.8485 19.6958 15.4545 18.6688C16.9697 13.1104 20 8.60938 24.5455 5.16563C29.0909 1.72188 34.2424 0 40 0C47.0909 0 53.1061 2.46198 58.0455 7.38594C62.9849 12.3099 65.4545 18.3063 65.4545 25.375C69.6364 25.8583 73.1061 27.6557 75.8636 30.7672C78.6212 33.8786 80 37.5188 80 41.6875C80 46.2188 78.4091 50.0703 75.2273 53.2422C72.0455 56.4141 68.1818 58 63.6364 58H20ZM20 50.75H63.6364C66.1818 50.75 68.3333 49.874 70.0909 48.1219C71.8485 46.3698 72.7273 44.225 72.7273 41.6875C72.7273 39.15 71.8485 37.0052 70.0909 35.2531C68.3333 33.501 66.1818 32.625 63.6364 32.625H58.1818V25.375C58.1818 20.3604 56.4091 16.0859 52.8636 12.5516C49.3182 9.01719 45.0303 7.25 40 7.25C34.9697 7.25 30.6818 9.01719 27.1364 12.5516C23.5909 16.0859 21.8182 20.3604 21.8182 25.375H20C16.4848 25.375 13.4848 26.6135 11 29.0906C8.51515 31.5677 7.27273 34.5583 7.27273 38.0625C7.27273 41.5667 8.51515 44.5573 11 47.0344C13.4848 49.5115 16.4848 50.75 20 50.75Z" fill="currentColor"/>
</svg>
