<svg viewBox="0 0 206 150" fill="none" xmlns="http://www.w3.org/2000/svg">
<path d="M51.5 150C37.2985 150 25.1648 145.078 15.0989 135.234C5.03295 125.391 0 113.359 0 99.1406C0 86.9531 3.66742 76.0938 11.0023 66.5625C18.3371 57.0312 27.9348 50.9375 39.7955 48.2812C43.697 33.9062 51.5 22.2656 63.2045 13.3594C74.9091 4.45312 88.1742 0 103 0C121.259 0 136.748 6.36719 149.467 19.1016C162.186 31.8359 168.545 47.3438 168.545 65.625C179.314 66.875 188.248 71.5234 195.349 79.5703C202.45 87.6172 206 97.0312 206 107.812C206 119.531 201.903 129.492 193.71 137.695C185.517 145.898 175.568 150 163.864 150H112.364C107.214 150 102.805 148.164 99.1375 144.492C95.4701 140.82 93.6364 136.406 93.6364 131.25V82.9688L78.6545 97.5L65.5455 84.375L103 46.875L140.455 84.375L127.345 97.5L112.364 82.9688V131.25H163.864C170.418 131.25 175.958 128.984 180.484 124.453C185.01 119.922 187.273 114.375 187.273 107.812C187.273 101.25 185.01 95.7031 180.484 91.1719C175.958 86.6406 170.418 84.375 163.864 84.375H149.818V65.625C149.818 52.6562 145.253 41.6016 136.124 32.4609C126.994 23.3203 115.953 18.75 103 18.75C90.047 18.75 79.0057 23.3203 69.8761 32.4609C60.7466 41.6016 56.1818 52.6562 56.1818 65.625H51.5C42.4485 65.625 34.7235 68.8281 28.325 75.2344C21.9265 81.6406 18.7273 89.375 18.7273 98.4375C18.7273 107.5 21.9265 115.234 28.325 121.641C34.7235 128.047 42.4485 131.25 51.5 131.25H74.9091V150H51.5Z" fill="currentColor"/>
</svg>
