<svg viewBox="0 0 150 150" fill="none" xmlns="http://www.w3.org/2000/svg">
<path d="M75 150C64.75 150 55.0625 148.031 45.9375 144.094C36.8125 140.156 28.8438 134.781 22.0312 127.969C15.2188 121.156 9.84375 113.188 5.90625 104.062C1.96875 94.9375 0 85.25 0 75C0 64.625 2.03125 54.875 6.09375 45.75C10.1562 36.625 15.6562 28.6875 22.5938 21.9375C29.5312 15.1875 37.625 9.84375 46.875 5.90625C56.125 1.96875 66 0 76.5 0C86.5 0 95.9375 1.71875 104.812 5.15625C113.688 8.59375 121.469 13.3438 128.156 19.4062C134.844 25.4688 140.156 32.6562 144.094 40.9688C148.031 49.2812 150 58.25 150 67.875C150 82.25 145.625 93.2812 136.875 100.969C128.125 108.656 117.5 112.5 105 112.5H91.125C90 112.5 89.2188 112.812 88.7812 113.438C88.3438 114.062 88.125 114.75 88.125 115.5C88.125 117 89.0625 119.156 90.9375 121.969C92.8125 124.781 93.75 128 93.75 131.625C93.75 137.875 92.0312 142.5 88.5938 145.5C85.1562 148.5 80.625 150 75 150ZM33.75 82.5C37 82.5 39.6875 81.4375 41.8125 79.3125C43.9375 77.1875 45 74.5 45 71.25C45 68 43.9375 65.3125 41.8125 63.1875C39.6875 61.0625 37 60 33.75 60C30.5 60 27.8125 61.0625 25.6875 63.1875C23.5625 65.3125 22.5 68 22.5 71.25C22.5 74.5 23.5625 77.1875 25.6875 79.3125C27.8125 81.4375 30.5 82.5 33.75 82.5ZM56.25 52.5C59.5 52.5 62.1875 51.4375 64.3125 49.3125C66.4375 47.1875 67.5 44.5 67.5 41.25C67.5 38 66.4375 35.3125 64.3125 33.1875C62.1875 31.0625 59.5 30 56.25 30C53 30 50.3125 31.0625 48.1875 33.1875C46.0625 35.3125 45 38 45 41.25C45 44.5 46.0625 47.1875 48.1875 49.3125C50.3125 51.4375 53 52.5 56.25 52.5ZM93.75 52.5C97 52.5 99.6875 51.4375 101.812 49.3125C103.938 47.1875 105 44.5 105 41.25C105 38 103.938 35.3125 101.812 33.1875C99.6875 31.0625 97 30 93.75 30C90.5 30 87.8125 31.0625 85.6875 33.1875C83.5625 35.3125 82.5 38 82.5 41.25C82.5 44.5 83.5625 47.1875 85.6875 49.3125C87.8125 51.4375 90.5 52.5 93.75 52.5ZM116.25 82.5C119.5 82.5 122.188 81.4375 124.312 79.3125C126.438 77.1875 127.5 74.5 127.5 71.25C127.5 68 126.438 65.3125 124.312 63.1875C122.188 61.0625 119.5 60 116.25 60C113 60 110.312 61.0625 108.188 63.1875C106.062 65.3125 105 68 105 71.25C105 74.5 106.062 77.1875 108.188 79.3125C110.312 81.4375 113 82.5 116.25 82.5ZM75 135C76.125 135 77.0312 134.688 77.7188 134.062C78.4062 133.438 78.75 132.625 78.75 131.625C78.75 129.875 77.8125 127.812 75.9375 125.438C74.0625 123.062 73.125 119.5 73.125 114.75C73.125 109.5 74.9375 105.312 78.5625 102.188C82.1875 99.0625 86.625 97.5 91.875 97.5H105C113.25 97.5 120.312 95.0938 126.188 90.2812C132.062 85.4688 135 78 135 67.875C135 52.75 129.219 40.1562 117.656 30.0938C106.094 20.0312 92.375 15 76.5 15C59.5 15 45 20.8125 33 32.4375C21 44.0625 15 58.25 15 75C15 91.625 20.8438 105.781 32.5312 117.469C44.2188 129.156 58.375 135 75 135Z" fill="currentColor"/>
</svg>
