<svg width="25" height="36" viewBox="0 0 25 36" fill="none" xmlns="http://www.w3.org/2000/svg">
<path d="M0.642974 12.6297C0.642974 9.33757 1.81874 6.49223 4.17026 4.09367C6.52179 1.69511 9.34362 0.495835 12.6358 0.495835C15.9279 0.495835 18.7497 1.69511 21.1013 4.09367C23.4528 6.49223 24.6285 9.33757 24.6285 12.6297C24.6285 14.9812 23.6762 17.9559 21.7714 21.5537C19.8667 25.1516 16.8215 29.7018 12.6358 35.2044C8.45004 29.7018 5.40481 25.1516 3.50008 21.5538C1.59534 17.9559 0.642974 14.9812 0.642974 12.6297ZM8.61465 12.5592C8.61465 13.4998 9.00265 14.8284 9.77865 16.545C10.5547 18.2616 11.4835 19.8489 12.5652 21.3068C13.6469 19.8489 14.5875 18.2734 15.387 16.5803C16.1866 14.8872 16.5863 13.5703 16.5863 12.6297C16.5863 11.501 16.2101 10.5133 15.4576 9.66679C14.7051 8.82024 13.7645 8.39696 12.6358 8.39696C11.507 8.39696 10.5547 8.80848 9.77865 9.63151C9.00265 10.4545 8.61465 11.4304 8.61465 12.5592Z" fill="currentColor"/>
</svg>
