<svg width="1898" height="1297" viewBox="0 0 1898 1297" fill="none" xmlns="http://www.w3.org/2000/svg">
<rect x="117" y="204" width="1440" height="1" fill="url(#paint0_linear_141_64)" fill-opacity="0.2"/>
<rect x="117" y="284" width="1440" height="1" fill="url(#paint1_linear_141_64)" fill-opacity="0.2"/>
<rect x="117" y="364" width="1440" height="1" fill="url(#paint2_linear_141_64)" fill-opacity="0.2"/>
<rect x="117" y="444" width="1440" height="1" fill="url(#paint3_linear_141_64)" fill-opacity="0.2"/>
<rect x="117" y="524" width="1440" height="1" fill="url(#paint4_linear_141_64)" fill-opacity="0.2"/>
<rect x="196" y="205" width="1" height="478" fill="url(#paint5_linear_141_64)" fill-opacity="0.2"/>
<rect x="276" y="205" width="1" height="478" fill="url(#paint6_linear_141_64)" fill-opacity="0.2"/>
<rect x="356" y="205" width="1" height="478" fill="url(#paint7_linear_141_64)" fill-opacity="0.2"/>
<rect x="436" y="205" width="1" height="478" fill="url(#paint8_linear_141_64)" fill-opacity="0.2"/>
<rect x="516" y="205" width="1" height="478" fill="url(#paint9_linear_141_64)" fill-opacity="0.2"/>
<rect x="596" y="205" width="1" height="478" fill="url(#paint10_linear_141_64)" fill-opacity="0.2"/>
<rect x="676" y="205" width="1" height="478" fill="url(#paint11_linear_141_64)" fill-opacity="0.2"/>
<rect x="756" y="205" width="1" height="478" fill="url(#paint12_linear_141_64)" fill-opacity="0.2"/>
<rect x="836" y="205" width="1" height="478" fill="url(#paint13_linear_141_64)" fill-opacity="0.2"/>
<rect x="916" y="205" width="1" height="478" fill="url(#paint14_linear_141_64)" fill-opacity="0.2"/>
<rect x="996" y="205" width="1" height="478" fill="url(#paint15_linear_141_64)" fill-opacity="0.2"/>
<rect x="1076" y="205" width="1" height="478" fill="url(#paint16_linear_141_64)" fill-opacity="0.2"/>
<rect x="1156" y="205" width="1" height="478" fill="url(#paint17_linear_141_64)" fill-opacity="0.2"/>
<rect x="1236" y="205" width="1" height="478" fill="url(#paint18_linear_141_64)" fill-opacity="0.2"/>
<rect x="1316" y="205" width="1" height="478" fill="url(#paint19_linear_141_64)" fill-opacity="0.2"/>
<rect x="1396" y="205" width="1" height="478" fill="url(#paint20_linear_141_64)" fill-opacity="0.2"/>
<rect x="1476" y="205" width="1" height="478" fill="url(#paint21_linear_141_64)" fill-opacity="0.2"/>
<g filter="url(#filter0_f_141_64)">
<path d="M426.804 876.881C426.804 875.898 416.696 864.854 421.12 850.586C425.543 836.317 430.764 816.272 436.304 799.881C443.234 779.381 443.571 775.881 455.304 757.881C460.133 750.473 465.325 743.245 486.251 713.933C504.259 688.71 539.125 643.827 568.154 610.211C597.182 576.596 619.791 555.953 642.251 539.42C664.711 522.888 686.338 511.092 706.817 502.066C727.296 493.04 745.973 487.142 764.688 482.384C783.402 477.625 801.587 474.184 829.387 472.166C857.187 470.148 894.049 469.657 915.497 469.649C941.864 469.64 952.33 472.114 962.733 474.594C972.012 476.806 980.643 477.58 1020.76 488.162C1056.96 497.711 1125.26 515.947 1171.76 525.807C1218.26 535.667 1240.87 536.65 1255.96 536.665C1277.95 536.686 1299.76 530.752 1325.79 523.32C1337.15 520.076 1344.44 516.871 1363.97 504.047C1383.5 491.223 1414.95 468.614 1433.12 455.001C1455.23 437.456 1462.72 431.439 1469.16 427.231C1472.16 424.989 1474.62 422.532 1477.15 420" stroke="#55C903" stroke-width="40" stroke-linecap="round"/>
</g>
<defs>
<filter id="filter0_f_141_64" x="-0.0035553" y="0" width="1897.15" height="1296.88" filterUnits="userSpaceOnUse" color-interpolation-filters="sRGB">
<feFlood flood-opacity="0" result="BackgroundImageFix"/>
<feBlend mode="normal" in="SourceGraphic" in2="BackgroundImageFix" result="shape"/>
<feGaussianBlur stdDeviation="200" result="effect1_foregroundBlur_141_64"/>
</filter>
<linearGradient id="paint0_linear_141_64" x1="837" y1="204" x2="837" y2="205" gradientUnits="userSpaceOnUse">
<stop stop-color="#55C903"/>
<stop offset="1" stop-color="#101010" stop-opacity="0"/>
</linearGradient>
<linearGradient id="paint1_linear_141_64" x1="837" y1="284" x2="837" y2="285" gradientUnits="userSpaceOnUse">
<stop stop-color="#55C903"/>
<stop offset="1" stop-color="#101010" stop-opacity="0"/>
</linearGradient>
<linearGradient id="paint2_linear_141_64" x1="837" y1="364" x2="837" y2="365" gradientUnits="userSpaceOnUse">
<stop stop-color="#55C903"/>
<stop offset="1" stop-color="#101010" stop-opacity="0"/>
</linearGradient>
<linearGradient id="paint3_linear_141_64" x1="837" y1="444" x2="837" y2="445" gradientUnits="userSpaceOnUse">
<stop stop-color="#55C903"/>
<stop offset="1" stop-color="#101010" stop-opacity="0"/>
</linearGradient>
<linearGradient id="paint4_linear_141_64" x1="837" y1="524" x2="837" y2="525" gradientUnits="userSpaceOnUse">
<stop stop-color="#55C903"/>
<stop offset="1" stop-color="#101010" stop-opacity="0"/>
</linearGradient>
<linearGradient id="paint5_linear_141_64" x1="196.5" y1="205" x2="196.5" y2="683" gradientUnits="userSpaceOnUse">
<stop stop-color="#55C903"/>
<stop offset="1" stop-color="#101010" stop-opacity="0"/>
</linearGradient>
<linearGradient id="paint6_linear_141_64" x1="276.5" y1="205" x2="276.5" y2="683" gradientUnits="userSpaceOnUse">
<stop stop-color="#55C903"/>
<stop offset="1" stop-color="#101010" stop-opacity="0"/>
</linearGradient>
<linearGradient id="paint7_linear_141_64" x1="356.5" y1="205" x2="356.5" y2="683" gradientUnits="userSpaceOnUse">
<stop stop-color="#55C903"/>
<stop offset="1" stop-color="#101010" stop-opacity="0"/>
</linearGradient>
<linearGradient id="paint8_linear_141_64" x1="436.5" y1="205" x2="436.5" y2="683" gradientUnits="userSpaceOnUse">
<stop stop-color="#55C903"/>
<stop offset="1" stop-color="#101010" stop-opacity="0"/>
</linearGradient>
<linearGradient id="paint9_linear_141_64" x1="516.5" y1="205" x2="516.5" y2="683" gradientUnits="userSpaceOnUse">
<stop stop-color="#55C903"/>
<stop offset="1" stop-color="#101010" stop-opacity="0"/>
</linearGradient>
<linearGradient id="paint10_linear_141_64" x1="596.5" y1="205" x2="596.5" y2="683" gradientUnits="userSpaceOnUse">
<stop stop-color="#55C903"/>
<stop offset="1" stop-color="#101010" stop-opacity="0"/>
</linearGradient>
<linearGradient id="paint11_linear_141_64" x1="676.5" y1="205" x2="676.5" y2="683" gradientUnits="userSpaceOnUse">
<stop stop-color="#55C903"/>
<stop offset="1" stop-color="#101010" stop-opacity="0"/>
</linearGradient>
<linearGradient id="paint12_linear_141_64" x1="756.5" y1="205" x2="756.5" y2="683" gradientUnits="userSpaceOnUse">
<stop stop-color="#55C903"/>
<stop offset="1" stop-color="#101010" stop-opacity="0"/>
</linearGradient>
<linearGradient id="paint13_linear_141_64" x1="836.5" y1="205" x2="836.5" y2="683" gradientUnits="userSpaceOnUse">
<stop stop-color="#55C903"/>
<stop offset="1" stop-color="#101010" stop-opacity="0"/>
</linearGradient>
<linearGradient id="paint14_linear_141_64" x1="916.5" y1="205" x2="916.5" y2="683" gradientUnits="userSpaceOnUse">
<stop stop-color="#55C903"/>
<stop offset="1" stop-color="#101010" stop-opacity="0"/>
</linearGradient>
<linearGradient id="paint15_linear_141_64" x1="996.5" y1="205" x2="996.5" y2="683" gradientUnits="userSpaceOnUse">
<stop stop-color="#55C903"/>
<stop offset="1" stop-color="#101010" stop-opacity="0"/>
</linearGradient>
<linearGradient id="paint16_linear_141_64" x1="1076.5" y1="205" x2="1076.5" y2="683" gradientUnits="userSpaceOnUse">
<stop stop-color="#55C903"/>
<stop offset="1" stop-color="#101010" stop-opacity="0"/>
</linearGradient>
<linearGradient id="paint17_linear_141_64" x1="1156.5" y1="205" x2="1156.5" y2="683" gradientUnits="userSpaceOnUse">
<stop stop-color="#55C903"/>
<stop offset="1" stop-color="#101010" stop-opacity="0"/>
</linearGradient>
<linearGradient id="paint18_linear_141_64" x1="1236.5" y1="205" x2="1236.5" y2="683" gradientUnits="userSpaceOnUse">
<stop stop-color="#55C903"/>
<stop offset="1" stop-color="#101010" stop-opacity="0"/>
</linearGradient>
<linearGradient id="paint19_linear_141_64" x1="1316.5" y1="205" x2="1316.5" y2="683" gradientUnits="userSpaceOnUse">
<stop stop-color="#55C903"/>
<stop offset="1" stop-color="#101010" stop-opacity="0"/>
</linearGradient>
<linearGradient id="paint20_linear_141_64" x1="1396.5" y1="205" x2="1396.5" y2="683" gradientUnits="userSpaceOnUse">
<stop stop-color="#55C903"/>
<stop offset="1" stop-color="#101010" stop-opacity="0"/>
</linearGradient>
<linearGradient id="paint21_linear_141_64" x1="1476.5" y1="205" x2="1476.5" y2="683" gradientUnits="userSpaceOnUse">
<stop stop-color="#55C903"/>
<stop offset="1" stop-color="#101010" stop-opacity="0"/>
</linearGradient>
</defs>
</svg>
