<svg width="40" height="53" viewBox="0 0 40 53" fill="currentColor" xmlns="http://www.w3.org/2000/svg">
<path d="M26.6667 53C23.0222 53 19.5778 52.3044 16.3333 50.9131C13.0889 49.5219 10.2556 47.6227 7.83333 45.2156C5.41111 42.8085 3.5 39.9929 2.1 36.7687C0.7 33.5446 0 30.1217 0 26.5C0 22.8342 0.7 19.4002 2.1 16.1981C3.5 12.996 5.41111 10.1915 7.83333 7.78437C10.2556 5.37729 13.0889 3.47812 16.3333 2.08687C19.5778 0.695625 23.0222 0 26.6667 0C29.0667 0 31.4 0.309167 33.6667 0.9275C35.9333 1.54583 38.0444 2.42917 40 3.5775C35.9556 5.91833 32.7222 9.08729 30.3 13.0844C27.8778 17.0815 26.6667 21.5533 26.6667 26.5C26.6667 31.4467 27.8778 35.9185 30.3 39.9156C32.7222 43.9127 35.9556 47.0817 40 49.4225C38.0444 50.5708 35.9333 51.4542 33.6667 52.0725C31.4 52.6908 29.0667 53 26.6667 53ZM26.6667 47.7H28.0667C28.5111 47.7 28.9333 47.6558 29.3333 47.5675C26.8 44.6525 24.8333 41.3952 23.4333 37.7956C22.0333 34.196 21.3333 30.4308 21.3333 26.5C21.3333 22.5692 22.0333 18.804 23.4333 15.2044C24.8333 11.6048 26.8 8.3475 29.3333 5.4325C28.9333 5.34417 28.5111 5.3 28.0667 5.3H26.6667C20.7556 5.3 15.7222 7.36479 11.5667 11.4944C7.41111 15.624 5.33333 20.6258 5.33333 26.5C5.33333 32.3742 7.41111 37.376 11.5667 41.5056C15.7222 45.6352 20.7556 47.7 26.6667 47.7Z" fill="currentColor"/>
</svg>
