<svg viewBox="0 0 75 60" fill="none" xmlns="http://www.w3.org/2000/svg">
<path d="M11.0487 7.5L14.0449 14.9063C15.8552 14.2813 17.6966 13.7031 19.5693 13.1719C21.4419 12.6406 23.3146 12.2188 25.1873 11.9063L22.191 7.5L11.0487 7.5ZM14.9813 22.5V37.5C17.4782 38.625 20.5212 39.5313 24.1105 40.2188C27.6997 40.9063 31.367 41.25 35.1124 41.25C41.2921 41.25 47.1442 40.2188 52.6685 38.1562C58.1929 36.0938 62.4532 33.375 65.4494 30C62.4532 26.625 58.1929 23.9063 52.6685 21.8438C47.1442 19.7813 41.2921 18.75 35.1124 18.75C31.367 18.75 27.6997 19.0938 24.1105 19.7813C20.5212 20.4688 17.4782 21.375 14.9813 22.5ZM33.7079 30C33.7079 27.9375 34.4413 26.1719 35.9082 24.7031C37.3752 23.2344 39.1386 22.5 41.1985 22.5C43.2584 22.5 45.0218 23.2344 46.4888 24.7031C47.9557 26.1719 48.6891 27.9375 48.6891 30C48.6891 32.0625 47.9557 33.8281 46.4888 35.2969C45.0218 36.7656 43.2584 37.5 41.1985 37.5C39.1386 37.5 37.3752 36.7656 35.9082 35.2969C34.4413 33.8281 33.7079 32.0625 33.7079 30ZM11.0487 52.5H22.191L25.1873 48.0938C23.3146 47.7813 21.4419 47.3594 19.5693 46.8281C17.6966 46.2969 15.8552 45.7188 14.0449 45.0938L11.0487 52.5ZM75 30C70.5056 36.1875 64.794 40.8594 57.8652 44.0156C50.9363 47.1719 42.8839 48.75 33.7079 48.75L28.4644 56.625C27.7778 57.6875 26.8727 58.5156 25.7491 59.1094C24.6255 59.7031 23.4394 60 22.191 60H0L7.49064 41.3438V18.6563L0 0L22.191 0C23.4394 0 24.6255 0.296875 25.7491 0.890625C26.8727 1.48438 27.7778 2.3125 28.4644 3.375L33.7079 11.25C42.8839 11.25 50.9363 12.8281 57.8652 15.9844C64.794 19.1406 70.5056 23.8125 75 30Z" fill="currentColor"/>
</svg>
