<svg width="65" height="81" viewBox="0 0 65 81" fill="none" xmlns="http://www.w3.org/2000/svg">
<path d="M8.72077 68.9721L16.5514 65.7975C15.8929 63.8223 15.305 61.8705 14.7877 59.9422C14.2704 58.014 13.8236 56.0152 13.4473 53.9458L8.72077 57.1204L8.72077 68.9721ZM24.5936 64.8099L40.6075 64.7394C41.8303 62.0116 42.7944 58.743 43.4998 54.9335C44.2053 51.124 44.558 47.244 44.558 43.2934C44.558 36.7092 43.4763 30.4776 41.3129 24.5988C39.1495 18.72 36.2571 14.2051 32.6358 11.054C29.0144 14.2051 26.1103 18.7317 23.9234 24.6341C21.7365 30.5364 20.643 36.7797 20.643 43.364C20.643 47.3145 20.9957 51.1946 21.7012 55.004C22.4067 58.8135 23.3708 62.0821 24.5936 64.8099ZM32.5652 47.6673C30.4018 47.6673 28.5324 46.8795 26.9569 45.304C25.3813 43.7285 24.5936 41.859 24.5936 39.6956C24.5936 37.5322 25.3931 35.651 26.9921 34.0519C28.5912 32.4529 30.4724 31.6534 32.6358 31.6534C34.7992 31.6534 36.6687 32.4411 38.2442 34.0167C39.8197 35.5922 40.6075 37.4616 40.6075 39.6251C40.6075 41.7885 39.8079 43.6697 38.2089 45.2687C36.6099 46.8678 34.7286 47.6673 32.5652 47.6673ZM56.5508 68.9721L56.5508 57.1204L51.8242 53.9458C51.448 56.0152 50.9895 58.0022 50.4486 59.907C49.9077 61.8117 49.3081 63.7517 48.6497 65.727L56.5508 68.9721ZM32.5652 0.824879C39.1495 5.62199 44.1347 11.7124 47.5209 19.0962C50.9071 26.48 52.6002 35.0631 52.6002 44.8454L60.9952 50.4186C62.1239 51.171 62.994 52.1352 63.6054 53.3109C64.2168 54.4867 64.5225 55.733 64.5225 57.0499V80.7532L44.6991 72.7816H20.5725L0.749093 80.7532L0.678551 57.1204C0.678551 55.8036 0.996007 54.5455 1.63092 53.3462C2.26583 52.1469 3.14765 51.171 4.27639 50.4186L12.6713 44.8454C12.6713 35.0631 14.3409 26.48 17.6801 19.0962C21.0193 11.7124 25.981 5.62199 32.5652 0.824879Z" fill="currentColor"/>
</svg>
