<svg viewBox="0 0 35 35" fill="currentColor" xmlns="http://www.w3.org/2000/svg">
<g clip-path="url(#clip0_131_111)">
<path d="M21.838 0.55735C20.926 1.11468 20.9014 1.11468 15.2077 1.11468C7.61619 1.11468 6.30985 1.42678 3.25351 3.9013C2.34154 4.63697 1.67605 5.46181 1.0352 6.66563C0.147878 8.31531 0.12323 8.40448 0.12323 10.9236C0.12323 13.3535 0.172526 13.5765 0.911962 15.0032C1.84858 16.8089 3.72182 18.637 5.44717 19.5064C7.76408 20.6433 8.6021 20.7325 16.9331 20.7325C21.2465 20.7325 24.8944 20.8217 25.2394 20.9554C25.5845 21.0669 26.0775 21.3567 26.3486 21.6019C26.8169 22.0255 26.8169 22.0924 26.4472 22.7389C25.2394 24.9236 28.2218 27.086 30.2922 25.5032C31.6479 24.4777 31.4507 22.4268 29.9472 21.8026C29.6021 21.6688 29.331 21.4682 29.331 21.3567C29.331 20.9554 27.4084 19.3058 26.4965 18.9268C25.6091 18.5478 24.7465 18.5032 18.0915 18.5032C10.3028 18.5032 8.74999 18.3695 6.97534 17.5669C5.59506 16.9427 3.82041 15.2261 3.13027 13.8663C2.31689 12.2389 2.39084 9.42996 3.27816 7.86945C4.21478 6.24206 5.22534 5.26117 6.8521 4.41404L8.25703 3.67837L14.7641 3.61149C20.9507 3.54461 21.2711 3.5669 21.7887 3.99047C22.5775 4.65926 23.4894 4.77073 24.4753 4.34716C26.3239 3.5669 26.5211 1.3599 24.7958 0.423592C23.7606 -0.156025 22.9225 -0.111439 21.838 0.55735Z" fill="currentColor"/>
<path d="M9.169 5.01595C8.20773 5.72933 7.9859 6.62105 8.47886 7.66882C9.14435 9.09557 11.3873 9.54143 12.4718 8.44907C12.8662 8.0478 13.2852 8.02551 21.0739 8.02551C27.926 8.02551 29.331 8.07009 29.5775 8.33761C30.5634 9.42996 32.8803 9.11786 33.6444 7.80258C34.8767 5.61786 31.919 3.45544 29.8732 5.01595L29.1338 5.57328H20.9753C15.8486 5.57328 12.8169 5.4841 12.8169 5.35035C12.8169 5.01595 11.4366 4.45863 10.6232 4.45863C10.2042 4.45863 9.58802 4.70385 9.169 5.01595Z" fill="currentColor"/>
<path d="M4.41196 9.34079C3.84506 9.85353 3.69717 10.1879 3.69717 10.9459C3.69717 11.7484 3.84506 12.0159 4.63379 12.6847C5.12675 13.1306 5.81689 13.8217 6.11267 14.2007C6.43309 14.6019 7.19717 15.2038 7.83802 15.5382L8.99647 16.1624L17.5 16.2739L26.0035 16.3854L27.4824 17.0096C29.3803 17.8121 31.1056 19.4618 31.7958 21.1338C32.5845 22.9841 32.412 25.5255 31.426 27.1752C30.4894 28.7134 28.6655 30.1847 26.9648 30.7421C25.7324 31.1656 25.0669 31.2102 19.5704 31.2102H13.507L12.7676 30.6529C11.9296 30.0064 11.1408 29.9395 10.1056 30.43C9.19365 30.8535 8.87323 31.3886 8.87323 32.5478C8.87323 34.5096 11.3873 35.4682 12.9894 34.1083C13.507 33.6847 13.8521 33.6624 19.2746 33.6624C27.2606 33.6624 29.1338 33.172 32.0176 30.43C36.9225 25.7261 35.2465 17.7452 28.7887 14.9809C26.5458 14.0223 24.5246 13.8217 16.588 13.8217H9.48943L8.74999 13.2866C8.0845 12.7962 8.05985 12.707 8.33098 12.172C9.19365 10.4331 8.10915 8.69429 6.16196 8.69429C5.34858 8.69429 4.97886 8.82805 4.41196 9.34079Z" fill="currentColor"/>
<path d="M2.34154 25.9045C0.862666 26.6402 0.492947 28.4682 1.6514 29.516C2.7359 30.4968 4.04224 30.5637 5.1021 29.6497C5.61971 29.2261 5.94013 29.2038 13.6549 29.2038H21.6655L22.6021 29.7835C23.8098 30.5191 24.9683 30.4077 25.9542 29.4268C26.8662 28.4905 26.8662 27.4427 25.9049 26.4841C25.2887 25.8599 25.0176 25.7484 24.081 25.7484C23.2676 25.7484 22.7993 25.8822 22.3803 26.2389C21.7887 26.7516 21.7394 26.7516 13.8521 26.7516H5.94013L5.02816 26.1943C4.06689 25.5924 3.13027 25.5032 2.34154 25.9045Z" fill="currentColor"/>
</g>
<defs>
<clipPath id="clip0_131_111">
<rect width="35" height="35" fill="currentColor"/>
</clipPath>
</defs>
</svg>
