<svg viewBox="0 0 150 150" fill="none" xmlns="http://www.w3.org/2000/svg">
<path d="M117.917 147.5L67.5 96.6667C64.7222 97.7778 61.9097 98.6111 59.0625 99.1667C56.2153 99.7222 53.1944 100 50 100C36.1111 100 24.3056 95.1389 14.5833 85.4167C4.86111 75.6944 0 63.8889 0 50C0 45 0.694444 40.2431 2.08333 35.7292C3.47222 31.2153 5.41667 26.9444 7.91667 22.9167L38.3333 53.3333L53.3333 38.3333L22.9167 7.91667C26.9444 5.41667 31.2153 3.47222 35.7292 2.08333C40.2431 0.694444 45 0 50 0C63.8889 0 75.6944 4.86111 85.4167 14.5833C95.1389 24.3056 100 36.1111 100 50C100 53.1944 99.7222 56.2153 99.1667 59.0625C98.6111 61.9097 97.7778 64.7222 96.6667 67.5L147.5 117.917C149.167 119.583 150 121.597 150 123.958C150 126.319 149.167 128.333 147.5 130L130 147.5C128.333 149.167 126.319 150 123.958 150C121.597 150 119.583 149.167 117.917 147.5ZM123.958 129.792L129.583 124.167L76.25 70.8333C78.75 68.0556 80.5556 64.8264 81.6667 61.1458C82.7778 57.4653 83.3333 53.75 83.3333 50C83.3333 41.6667 80.6597 34.4097 75.3125 28.2292C69.9653 22.0486 63.3333 18.3333 55.4167 17.0833L70.8333 32.5C72.5 34.1667 73.3333 36.1111 73.3333 38.3333C73.3333 40.5556 72.5 42.5 70.8333 44.1667L44.1667 70.8333C42.5 72.5 40.5556 73.3333 38.3333 73.3333C36.1111 73.3333 34.1667 72.5 32.5 70.8333L17.0833 55.4167C18.3333 63.3333 22.0486 69.9653 28.2292 75.3125C34.4097 80.6597 41.6667 83.3333 50 83.3333C53.6111 83.3333 57.2222 82.7778 60.8333 81.6667C64.4444 80.5556 67.7083 78.8194 70.625 76.4583L123.958 129.792Z" fill="currentColor"/>
</svg>
